<svg role="img" viewBox="0 0 24 24" xmlns="http://www.w3.org/2000/svg">
  <title>WhatsApp (Brand Green)</title>
  <path d="M17.472 14.382c-.297-.149-1.758-.867-2.03-.967-.273-.1-.472-.149-.672.149-.198.298-.767.967-.94 1.165-.173.198-.347.223-.644.074-.297-.149-1.255-.462-2.39-1.475-.883-.788-1.48-1.76-1.653-2.058-.173-.298-.018-.459.13-.607.134-.133.298-.348.446-.522.148-.173.198-.297.297-.495.1-.198.05-.371-.025-.52-.075-.149-.672-1.61-.922-2.205-.242-.579-.487-.5-.672-.51l-.572-.01c-.198 0-.52.074-.79.372s-1.04 1.016-1.04 2.479 1.065 2.876 1.213 3.074c.149.198 2.095 3.2 5.076 4.487.709.306 1.262.49 1.694.626.712.226 1.36.194 1.872.118.571-.086 1.758-.72 2.006-1.414.248-.694.248-1.29.173-1.413-.074-.123-.272-.198-.57-.347zm-5.421 5.33h-.004a8.822 8.822 0 01-4.492-1.232l-.322-.191-3.337.871.893-3.257-.209-.334a8.824 8.824 0 1116.16-4.716 8.79 8.79 0 01-1.231 4.49c-.205.355-1.243 2.357-3.514 3.352-1.194.519-2.73 1.014-4.144.967z" fill="#25D366"/>
</svg>
